<?xml version="1.0" encoding="utf-8"?>
<!-- Generator: Adobe Illustrator 24.0.0, SVG Export Plug-In . SVG Version: 6.00 Build 0)  -->
<svg version="1.1" id="Layer_1" xmlns="http://www.w3.org/2000/svg" xmlns:xlink="http://www.w3.org/1999/xlink" x="0px" y="0px"
	 viewBox="0 0 1000 330" style="enable-background:new 0 0 1000 330;" xml:space="preserve">
<style type="text/css">
	.st0{fill-rule:evenodd;clip-rule:evenodd;fill:none;}
	.st1{fill:#E64C3C;stroke:#EC008C;stroke-miterlimit:10;}
	.st2{fill-rule:evenodd;clip-rule:evenodd;fill:#1D393F;}
	.st3{fill:#F1F2F2;}
	.st4{font-family:'JetBrainsMono-Regular';}
	.st5{font-size:286px;}
</style>
<g>
	<path class="st0" d="M166.5,200.2c0-43,0-86.1,0-129.1c0-16.1-11.3-27.4-27.4-27.4c-23.7-0.1-47.3,0-71,0c-6.4,0-7.3,0.7-9.4,6.5
		c-3.6,10-7.1,20-10.7,30c-1.5,4.3-0.7,5.8,4,5.8c4.2,0,8.3,0.5,12.3,1.5C76.3,90.3,89,101,88.4,117.3c-0.5,17-0.1,34-0.2,51
		c0,3.4,1.1,5.8,3.9,7.8c6.3,4.4,12.4,9.1,18.5,13.7c4.6,3.5,4.6,9.1,0,12.5c-5.8,4.3-11.5,8.8-17.4,13c-3.6,2.5-5.1,5.5-5.1,10
		c0.2,19.4-0.4,38.8,0.2,58.1c0.5,16.6-13.9,28.5-27.9,29.7c-12.5,1.1-25.1,0.3-37.7,0.3c-2.3,0-3.6-0.9-3.6-3.4
		c0-5.9,0-11.8,0-17.8c0-2.4,1.2-3.5,3.6-3.5c1.8,0.1,3.6-0.2,5.3,0.3c6.6,1.9,13.1,1.6,19.7-0.1c6.9-1.7,7.9-2.8,7.9-10
		c0-18.6,0.1-37.3,0-55.9c-0.1-10.5,3.7-18.6,13.2-23.8c4.4-2.4,4.6-3.8,0.1-6.3c-10.2-5.6-13.6-14.4-13.3-25.5
		c0.3-16,0.1-32,0.1-47.9c0-5.6-2.5-8.4-8-9.4c-7.8-1.4-10.9-0.1-13,5.5c-5.7,15.5-11.3,31.1-16.9,46.6
		C5.6,196.2-6.5,229.8-18.8,263.3c-10.5,28.9-21,52.7-31.5,81.6c-1.7,4.8-1.3,5.4,3.8,5.4c63.3,0,126.6,5,189.9,5
		c2.4,0,4.6-0.2,6.9-1.2c11.2-5,16.1-13.9,16.1-25.7C166.5,285.7,166.5,243,166.5,200.2z"/>
	<path class="st1" d="M952.1,318.8H48c-20.5,0-37.2-16.4-37.2-36.6l2.9-235.5C13.7,26.5,27.5,10,48,10l904.1,2
		c20.5,0,37.2,14.4,37.2,34.6v235.6C989.3,302.5,972.6,318.8,952.1,318.8z"/>
	<path class="st2" d="M129.6,9.8c30.5,0,61,0,91.4,0c7,0,7.7,1,5.3,7.4c-13.2,36.2-26.4,72.4-39.6,108.5
		c-14.4,39.3-28.9,78.6-43.4,117.9c-0.2,0.6-0.4,1.1-0.6,1.7c-3,9.1-5.6,10.4-15.1,7.5c-4.6-1.4-6.4-3.9-6.4-9.3
		c0-19.1-0.5-38.2,0.2-57.3c0.4-10.6-4.6-17.2-12.9-22.3c-4-2.5-4.1-3.4,0.1-5.9c8.7-5.1,13.2-12.1,12.8-22.8
		c-0.7-15.8-0.2-31.7-0.2-47.6c0-8.7,2.9-11.6,11.8-11.7c6.5-0.1,13-0.2,19.5,0c3.9,0.1,5.3-1.4,5.1-5.2c-0.2-5.1-0.1-10.3,0-15.4
		c0.1-3-1.3-4.2-4.3-4.2c-11.4,0.1-22.9-0.8-34.2,0.3c-17.6,1.6-31.7,12.8-31,32.3c0.6,16.1,0,32.3,0.2,48.5c0,3.9-1.2,6.7-4.4,8.9
		c-5.9,4.1-11.7,8.4-17.5,12.8c-5.5,4.2-5.3,10,0.4,14.1c6.2,4.5,12.3,9.2,18.5,13.7c2.7,1.9,3,4.5,3,7.4c0,19.1,0.6,38.2-0.2,57.3
		c-0.8,19.3,16.6,31.4,31.8,31.5c11,0,10.9,0.1,7.1,10.2c-3.4,8.9-6.7,17.9-9.8,26.9c-1.1,3.1-3,4.3-6.3,4.3
		c-25.2-0.1-50.3,0.1-75.5-0.1c-13.4-0.1-23.4-10.1-24.3-23.8c-0.1-1.2-0.1-2.4-0.1-3.5c0-85,0-169.9,0-254.9
		c0-11.1,3.9-19.9,14.6-24.5c4.3-1.9,9-2.8,13.8-2.7C69.5,9.9,99.5,9.8,129.6,9.8z"/>
	<path class="st2" d="M872.4,320.2c-30.5,0-60.9,0-91.4,0c-7,0-7.7-1-5.3-7.4c13.2-36.1,26.4-72.2,39.6-108.2
		c14.4-39.2,28.9-78.4,43.4-117.6c0.2-0.6,0.4-1.1,0.6-1.6c3-9.1,5.6-10.4,15.1-7.5c4.6,1.4,6.4,3.9,6.4,9.3
		c0,19.1,0.5,38.1-0.2,57.2c-0.4,10.6,4.6,17.1,12.8,22.2c4,2.5,4.1,3.4-0.1,5.9c-8.7,5.1-13.2,12.1-12.8,22.7
		c0.7,15.8,0.2,31.7,0.2,47.5c0,8.6-2.9,11.5-11.8,11.7c-6.5,0.1-13,0.2-19.5,0c-3.9-0.1-5.3,1.4-5.1,5.2c0.2,5.1,0.1,10.3,0,15.4
		c-0.1,3,1.3,4.2,4.3,4.2c11.4-0.1,22.9,0.8,34.2-0.3c17.6-1.6,31.7-12.8,31-32.2c-0.6-16.1,0-32.3-0.2-48.4c0-3.9,1.2-6.7,4.4-8.9
		c5.9-4.1,11.7-8.4,17.5-12.8c5.5-4.2,5.3-10-0.4-14.1c-6.2-4.5-12.3-9.2-18.5-13.6c-2.7-1.9-3-4.4-3-7.3c0-19.1-0.6-38.1,0.2-57.2
		c0.8-19.2-16.6-31.4-31.8-31.4c-11,0-10.9-0.1-7.1-10.1c3.4-8.9,6.7-17.9,9.8-26.8c1.1-3.1,3-4.3,6.3-4.3c24.9,0.1,49.4,0,75.4,0.1
		c13.4,0.1,23.4,10.1,24.3,23.7c0.1,1.2,0.1,2.3,0.1,3.5c0,84.7,0,169.5,0,254.2c0,11-3.9,19.8-14.6,24.5c-4.3,1.9-9,2.8-13.8,2.7
		C932.4,320.1,902.4,320.2,872.4,320.2z"/>
</g>
<text transform="matrix(0.8332 0 0 1 207.3063 275.8517)" class="st3 st4 st5">CODE</text>
<path class="st0" d="M928.8,234.7c9.4,3,12-3.3,15.1-12.5c0.2-0.6,0.4-1.1,0.6-1.7c14.5-39.6,28.9-79.1,43.4-118.7
	c13.2-36.4,26.4-78.8,39.6-115.2c2.3-6.4,1.7-7.4-5.3-7.4c-30.5,0-60.9,6-91.4,6"/>
<path class="st0" d="M920.4,32.1c11.3-1,22.8-5.2,34.2-5.3c3,0,4.3,1.2,4.3,4.2c-0.1,5.2-0.2,10.4,0,15.5c0.2,3.8-1.2,5.4-5.1,5.2
	c-6.5-0.2-13-0.1-19.5,0"/>
</svg>
